<mxfile host="65bd71144e" pages="1">
    <diagram id="4aA8682Oxr7YlsX3xrEW" name="Page-1">
        <mxGraphModel dx="703" dy="497" grid="1" gridSize="10" guides="1" tooltips="1" connect="1" arrows="1" fold="1" page="1" pageScale="1" pageWidth="827" pageHeight="1169" math="0" shadow="0">
            <root>
                <mxCell id="0"/>
                <mxCell id="1" parent="0"/>
                <mxCell id="asYjwT--wiLLLTKxJUm1-8" value="" style="rounded=0;whiteSpace=wrap;html=1;strokeColor=#767171;fillColor=none;gradientColor=none;strokeWidth=2;" parent="1" vertex="1">
                    <mxGeometry x="40" y="40" width="310" height="280" as="geometry"/>
                </mxCell>
                <mxCell id="asYjwT--wiLLLTKxJUm1-7" value="&lt;font color=&quot;#767171&quot;&gt;&lt;b&gt;&lt;i&gt;subnet&lt;/i&gt;&lt;/b&gt;&lt;/font&gt;" style="outlineConnect=0;gradientColor=none;html=1;whiteSpace=wrap;fontSize=12;fontStyle=0;shape=mxgraph.aws4.group;grIcon=mxgraph.aws4.group_subnet;strokeColor=#767171;fillColor=none;verticalAlign=top;align=left;spacingLeft=30;fontColor=#FFCD2D;dashed=0;strokeWidth=2;" parent="1" vertex="1">
                    <mxGeometry x="120" y="170" width="140" height="110" as="geometry"/>
                </mxCell>
                <mxCell id="asYjwT--wiLLLTKxJUm1-4" value="" style="outlineConnect=0;fontColor=#232F3E;gradientColor=none;gradientDirection=north;fillColor=#767171;strokeColor=#ffffff;dashed=0;verticalLabelPosition=bottom;verticalAlign=top;align=center;html=1;fontSize=12;fontStyle=0;aspect=fixed;shape=mxgraph.aws4.resourceIcon;resIcon=mxgraph.aws4.vpc;" parent="1" vertex="1">
                    <mxGeometry x="40" y="40" width="40" height="40" as="geometry"/>
                </mxCell>
                <mxCell id="asYjwT--wiLLLTKxJUm1-16" value="" style="endArrow=none;html=1;strokeColor=#767171;fontColor=#767171;fontSize=27;spacing=7;strokeWidth=2;" parent="1" edge="1">
                    <mxGeometry width="50" height="50" relative="1" as="geometry">
                        <mxPoint x="380" y="79.5" as="sourcePoint"/>
                        <mxPoint x="420" y="79.5" as="targetPoint"/>
                    </mxGeometry>
                </mxCell>
                <mxCell id="asYjwT--wiLLLTKxJUm1-17" value="" style="endArrow=none;html=1;strokeColor=#23A8D4;fontColor=#767171;fontSize=27;spacing=7;strokeWidth=2;" parent="1" edge="1">
                    <mxGeometry width="50" height="50" relative="1" as="geometry">
                        <mxPoint x="380" y="120" as="sourcePoint"/>
                        <mxPoint x="420" y="120" as="targetPoint"/>
                    </mxGeometry>
                </mxCell>
                <mxCell id="asYjwT--wiLLLTKxJUm1-18" value="&lt;font style=&quot;font-size: 12px&quot;&gt;Preexisting resources&lt;/font&gt;" style="text;html=1;resizable=0;autosize=1;align=center;verticalAlign=middle;points=[];fillColor=none;strokeColor=none;rounded=0;fontSize=12;fontColor=#767171;fontStyle=1" parent="1" vertex="1">
                    <mxGeometry x="429" y="65" width="130" height="20" as="geometry"/>
                </mxCell>
                <mxCell id="asYjwT--wiLLLTKxJUm1-19" value="&lt;font style=&quot;font-size: 12px&quot;&gt;Module resources&lt;/font&gt;" style="text;html=1;resizable=0;autosize=1;align=center;verticalAlign=middle;points=[];fillColor=none;strokeColor=none;rounded=0;fontSize=12;fontColor=#23A8D4;fontStyle=1" parent="1" vertex="1">
                    <mxGeometry x="427" y="106" width="110" height="20" as="geometry"/>
                </mxCell>
                <mxCell id="3" value="&lt;b&gt;&lt;font style=&quot;font-size: 24px&quot;&gt;....&lt;/font&gt;&lt;/b&gt;" style="text;html=1;resizable=0;autosize=1;align=center;verticalAlign=middle;points=[];fillColor=none;strokeColor=none;rounded=0;fontColor=#767171;" parent="1" vertex="1">
                    <mxGeometry x="168.5" y="290" width="40" height="20" as="geometry"/>
                </mxCell>
                <mxCell id="28" style="edgeStyle=orthogonalEdgeStyle;html=1;entryX=1;entryY=0.5;entryDx=0;entryDy=0;fontSize=24;fontColor=#767171;endArrow=none;endFill=0;strokeColor=#23A8D4;strokeWidth=2;rounded=0;" parent="1" source="4" target="17" edge="1">
                    <mxGeometry relative="1" as="geometry"/>
                </mxCell>
                <mxCell id="4" value="" style="sketch=0;outlineConnect=0;fontColor=#232F3E;gradientColor=none;fillColor=#23A8D4;strokeColor=none;dashed=0;verticalLabelPosition=bottom;verticalAlign=top;align=center;html=1;fontSize=12;fontStyle=0;aspect=fixed;pointerEvents=1;shape=mxgraph.aws4.instance2;" parent="1" vertex="1">
                    <mxGeometry x="290" y="159" width="40" height="40" as="geometry"/>
                </mxCell>
                <mxCell id="5" value="&lt;font style=&quot;font-size: 12px&quot;&gt;Instance&lt;/font&gt;" style="text;html=1;resizable=0;autosize=1;align=center;verticalAlign=middle;points=[];fillColor=none;strokeColor=none;rounded=0;fontSize=12;fontColor=#23A8D4;fontStyle=1" parent="1" vertex="1">
                    <mxGeometry x="280" y="206.5" width="60" height="20" as="geometry"/>
                </mxCell>
                <mxCell id="6" value="" style="rounded=1;arcSize=10;strokeColor=#23A8D4;fillColor=none;gradientColor=none;strokeWidth=2;shadow=0;labelBackgroundColor=none;fontSize=17;fontColor=#FFCD2D;" parent="1" vertex="1">
                    <mxGeometry x="130" y="214.5" width="120" height="50" as="geometry"/>
                </mxCell>
                <mxCell id="7" value="" style="outlineConnect=0;fontColor=#232F3E;gradientColor=none;fillColor=#23A8D4;strokeColor=none;dashed=0;verticalLabelPosition=bottom;verticalAlign=top;align=center;html=1;fontSize=12;fontStyle=0;aspect=fixed;pointerEvents=1;shape=mxgraph.aws4.elastic_network_interface;shadow=0;labelBackgroundColor=none;" parent="1" vertex="1">
                    <mxGeometry x="210" y="219" width="30" height="30" as="geometry"/>
                </mxCell>
                <mxCell id="8" value="" style="pointerEvents=1;shadow=0;dashed=0;html=1;strokeColor=none;labelPosition=center;verticalLabelPosition=bottom;verticalAlign=top;outlineConnect=0;align=center;shape=mxgraph.office.security.lock_protected;fillColor=#23A8D4;labelBackgroundColor=none;fontSize=17;fontColor=#FFCD2D;aspect=fixed;" parent="1" vertex="1">
                    <mxGeometry x="149" y="195.5" width="20" height="27.37" as="geometry"/>
                </mxCell>
                <mxCell id="9" value="&lt;font style=&quot;font-size: 12px&quot;&gt;interface&lt;br&gt;&lt;/font&gt;" style="text;html=1;resizable=0;autosize=1;align=center;verticalAlign=middle;points=[];fillColor=none;strokeColor=none;rounded=0;fontSize=12;fontColor=#23A8D4;fontStyle=1" parent="1" vertex="1">
                    <mxGeometry x="190" y="245" width="60" height="20" as="geometry"/>
                </mxCell>
                <mxCell id="10" value="&lt;font style=&quot;font-size: 12px&quot;&gt;security &lt;br&gt;group&lt;br&gt;&lt;/font&gt;" style="text;html=1;resizable=0;autosize=1;align=center;verticalAlign=middle;points=[];fillColor=none;strokeColor=none;rounded=0;fontSize=12;fontColor=#23A8D4;fontStyle=1" parent="1" vertex="1">
                    <mxGeometry x="130" y="220" width="60" height="30" as="geometry"/>
                </mxCell>
                <mxCell id="15" value="" style="endArrow=none;html=1;strokeColor=#23A8D4;fontColor=#767171;fontSize=27;spacing=7;strokeWidth=2;exitX=0.75;exitY=0;exitDx=0;exitDy=0;" parent="1" source="6" edge="1">
                    <mxGeometry width="50" height="50" relative="1" as="geometry">
                        <mxPoint x="331" y="124.5" as="sourcePoint"/>
                        <mxPoint x="219.5" y="202" as="targetPoint"/>
                    </mxGeometry>
                </mxCell>
                <mxCell id="16" value="&lt;font color=&quot;#767171&quot;&gt;&lt;b&gt;&lt;i&gt;subnet&lt;/i&gt;&lt;/b&gt;&lt;/font&gt;" style="outlineConnect=0;gradientColor=none;html=1;whiteSpace=wrap;fontSize=12;fontStyle=0;shape=mxgraph.aws4.group;grIcon=mxgraph.aws4.group_subnet;strokeColor=#767171;fillColor=none;verticalAlign=top;align=left;spacingLeft=30;fontColor=#FFCD2D;dashed=0;strokeWidth=2;" parent="1" vertex="1">
                    <mxGeometry x="120" y="50" width="140" height="110" as="geometry"/>
                </mxCell>
                <mxCell id="17" value="" style="rounded=1;arcSize=10;strokeColor=#23A8D4;fillColor=none;gradientColor=none;strokeWidth=2;shadow=0;labelBackgroundColor=none;fontSize=17;fontColor=#FFCD2D;" parent="1" vertex="1">
                    <mxGeometry x="130" y="94.5" width="120" height="50" as="geometry"/>
                </mxCell>
                <mxCell id="18" value="" style="outlineConnect=0;fontColor=#232F3E;gradientColor=none;fillColor=#23A8D4;strokeColor=none;dashed=0;verticalLabelPosition=bottom;verticalAlign=top;align=center;html=1;fontSize=12;fontStyle=0;aspect=fixed;pointerEvents=1;shape=mxgraph.aws4.elastic_network_interface;shadow=0;labelBackgroundColor=none;" parent="1" vertex="1">
                    <mxGeometry x="210" y="99" width="30" height="30" as="geometry"/>
                </mxCell>
                <mxCell id="19" value="" style="pointerEvents=1;shadow=0;dashed=0;html=1;strokeColor=none;labelPosition=center;verticalLabelPosition=bottom;verticalAlign=top;outlineConnect=0;align=center;shape=mxgraph.office.security.lock_protected;fillColor=#23A8D4;labelBackgroundColor=none;fontSize=17;fontColor=#FFCD2D;aspect=fixed;" parent="1" vertex="1">
                    <mxGeometry x="149" y="75.5" width="20" height="27.37" as="geometry"/>
                </mxCell>
                <mxCell id="20" value="&lt;font style=&quot;font-size: 12px&quot;&gt;interface&lt;br&gt;&lt;/font&gt;" style="text;html=1;resizable=0;autosize=1;align=center;verticalAlign=middle;points=[];fillColor=none;strokeColor=none;rounded=0;fontSize=12;fontColor=#23A8D4;fontStyle=1" parent="1" vertex="1">
                    <mxGeometry x="190" y="125" width="60" height="20" as="geometry"/>
                </mxCell>
                <mxCell id="21" value="&lt;font style=&quot;font-size: 12px&quot;&gt;security &lt;br&gt;group&lt;br&gt;&lt;/font&gt;" style="text;html=1;resizable=0;autosize=1;align=center;verticalAlign=middle;points=[];fillColor=none;strokeColor=none;rounded=0;fontSize=12;fontColor=#23A8D4;fontStyle=1" parent="1" vertex="1">
                    <mxGeometry x="130" y="100" width="60" height="30" as="geometry"/>
                </mxCell>
                <mxCell id="26" value="" style="endArrow=none;html=1;strokeColor=#23A8D4;fontColor=#767171;fontSize=27;spacing=7;strokeWidth=2;exitX=0.75;exitY=0;exitDx=0;exitDy=0;" parent="1" source="17" edge="1">
                    <mxGeometry width="50" height="50" relative="1" as="geometry">
                        <mxPoint x="331" y="4.5" as="sourcePoint"/>
                        <mxPoint x="219.5" y="82" as="targetPoint"/>
                    </mxGeometry>
                </mxCell>
                <mxCell id="29" style="edgeStyle=orthogonalEdgeStyle;html=1;entryX=1;entryY=0.5;entryDx=0;entryDy=0;fontSize=24;fontColor=#767171;endArrow=none;endFill=0;strokeColor=#23A8D4;strokeWidth=2;rounded=0;" parent="1" source="4" target="6" edge="1">
                    <mxGeometry relative="1" as="geometry">
                        <mxPoint x="300" y="177" as="sourcePoint"/>
                        <mxPoint x="260" y="129.5" as="targetPoint"/>
                    </mxGeometry>
                </mxCell>
                <mxCell id="30" value="" style="group" vertex="1" connectable="0" parent="1">
                    <mxGeometry x="207" y="60" width="35" height="35" as="geometry"/>
                </mxCell>
                <mxCell id="31" value="" style="group" vertex="1" connectable="0" parent="30">
                    <mxGeometry width="25" height="25" as="geometry"/>
                </mxCell>
                <mxCell id="32" value="" style="ellipse;whiteSpace=wrap;html=1;aspect=fixed;strokeColor=none;strokeWidth=2;fillColor=#FFFFFF;gradientColor=none;fontSize=12;fontColor=#FFCD2D;" vertex="1" parent="31">
                    <mxGeometry x="3" y="3" width="20" height="20" as="geometry"/>
                </mxCell>
                <mxCell id="33" value="" style="outlineConnect=0;fontColor=#FFCD2D;gradientColor=none;strokeColor=#23A8D4;fillColor=none;dashed=0;verticalLabelPosition=bottom;verticalAlign=top;align=center;html=1;fontSize=12;fontStyle=1;aspect=fixed;shape=mxgraph.aws4.resourceIcon;resIcon=mxgraph.aws4.filtering_rule;strokeWidth=1;" vertex="1" parent="31">
                    <mxGeometry width="25" height="25" as="geometry"/>
                </mxCell>
                <mxCell id="34" value="" style="group" vertex="1" connectable="0" parent="30">
                    <mxGeometry x="10" y="10" width="25" height="25" as="geometry"/>
                </mxCell>
                <mxCell id="35" value="" style="ellipse;whiteSpace=wrap;html=1;aspect=fixed;strokeColor=none;strokeWidth=2;fillColor=#FFFFFF;gradientColor=none;fontSize=12;fontColor=#FFCD2D;" vertex="1" parent="34">
                    <mxGeometry x="3" y="3" width="20" height="20" as="geometry"/>
                </mxCell>
                <mxCell id="36" value="" style="outlineConnect=0;fontColor=#FFCD2D;gradientColor=none;strokeColor=#23A8D4;fillColor=none;dashed=0;verticalLabelPosition=bottom;verticalAlign=top;align=center;html=1;fontSize=12;fontStyle=1;aspect=fixed;shape=mxgraph.aws4.resourceIcon;resIcon=mxgraph.aws4.filtering_rule;strokeWidth=1;" vertex="1" parent="34">
                    <mxGeometry width="25" height="25" as="geometry"/>
                </mxCell>
                <mxCell id="37" value="" style="group" vertex="1" connectable="0" parent="1">
                    <mxGeometry x="207" y="180" width="35" height="35" as="geometry"/>
                </mxCell>
                <mxCell id="38" value="" style="group" vertex="1" connectable="0" parent="37">
                    <mxGeometry width="25" height="25" as="geometry"/>
                </mxCell>
                <mxCell id="39" value="" style="ellipse;whiteSpace=wrap;html=1;aspect=fixed;strokeColor=none;strokeWidth=2;fillColor=#FFFFFF;gradientColor=none;fontSize=12;fontColor=#FFCD2D;" vertex="1" parent="38">
                    <mxGeometry x="3" y="3" width="20" height="20" as="geometry"/>
                </mxCell>
                <mxCell id="40" value="" style="outlineConnect=0;fontColor=#FFCD2D;gradientColor=none;strokeColor=#23A8D4;fillColor=none;dashed=0;verticalLabelPosition=bottom;verticalAlign=top;align=center;html=1;fontSize=12;fontStyle=1;aspect=fixed;shape=mxgraph.aws4.resourceIcon;resIcon=mxgraph.aws4.filtering_rule;strokeWidth=1;" vertex="1" parent="38">
                    <mxGeometry width="25" height="25" as="geometry"/>
                </mxCell>
                <mxCell id="41" value="" style="group" vertex="1" connectable="0" parent="37">
                    <mxGeometry x="10" y="10" width="25" height="25" as="geometry"/>
                </mxCell>
                <mxCell id="42" value="" style="ellipse;whiteSpace=wrap;html=1;aspect=fixed;strokeColor=none;strokeWidth=2;fillColor=#FFFFFF;gradientColor=none;fontSize=12;fontColor=#FFCD2D;" vertex="1" parent="41">
                    <mxGeometry x="3" y="3" width="20" height="20" as="geometry"/>
                </mxCell>
                <mxCell id="43" value="" style="outlineConnect=0;fontColor=#FFCD2D;gradientColor=none;strokeColor=#23A8D4;fillColor=none;dashed=0;verticalLabelPosition=bottom;verticalAlign=top;align=center;html=1;fontSize=12;fontStyle=1;aspect=fixed;shape=mxgraph.aws4.resourceIcon;resIcon=mxgraph.aws4.filtering_rule;strokeWidth=1;" vertex="1" parent="41">
                    <mxGeometry width="25" height="25" as="geometry"/>
                </mxCell>
            </root>
        </mxGraphModel>
    </diagram>
</mxfile>